<svg width="100" height="22" viewBox="0 0 100 22" fill="none" xmlns="http://www.w3.org/2000/svg">
<path d="M5.778 17.198C4.206 17.198 2.94 16.67 1.98 15.614C1.02 14.558 0.54 13.16 0.54 11.42C0.54 9.44 1.14 7.772 2.34 6.416C3.54 5.06 5.016 4.382 6.768 4.382C7.464 4.382 8.106 4.448 8.694 4.58C9.294 4.7 9.72 4.826 9.972 4.958L10.332 5.156L9.288 7.658C8.928 7.418 8.442 7.196 7.83 6.992C7.218 6.776 6.678 6.668 6.21 6.668C5.238 6.668 4.458 7.01 3.87 7.694C3.282 8.378 2.988 9.284 2.988 10.412C2.988 11.936 3.264 13.124 3.816 13.976C4.38 14.828 5.16 15.254 6.156 15.254C6.804 15.254 7.416 15.164 7.992 14.984V12.194H5.67L5.85 10.376H10.17L10.008 13.31L10.134 16.424C8.37 16.94 6.918 17.198 5.778 17.198ZM14.8994 7.838L14.6834 12.32L14.8814 16.55L12.4694 17L12.6854 12.626L12.4874 8.288L14.8994 7.838ZM12.3614 5.21C12.3614 4.802 12.5174 4.442 12.8294 4.13C13.1414 3.806 13.5014 3.644 13.9094 3.644C14.3174 3.644 14.6294 3.758 14.8454 3.986C15.0614 4.202 15.1694 4.532 15.1694 4.976C15.1694 5.42 15.0134 5.804 14.7014 6.128C14.4014 6.44 14.0474 6.596 13.6394 6.596C13.2434 6.596 12.9314 6.464 12.7034 6.2C12.4754 5.936 12.3614 5.606 12.3614 5.21ZM17.5839 8.288V6.326L20.0139 5.858L19.7799 8.288H21.9579L21.7599 9.764H19.7079L19.6179 13.526C19.6179 14.09 19.6719 14.468 19.7799 14.66C19.8879 14.84 20.0859 14.93 20.3739 14.93C20.6619 14.93 21.0459 14.864 21.5259 14.732L21.6339 16.01C20.8419 16.67 20.1459 17 19.5459 17C18.9459 17 18.4539 16.784 18.0699 16.352C17.6859 15.908 17.4939 15.332 17.4939 14.624L17.6019 12.608L17.5839 9.764H16.3419L16.5399 8.288H17.5839ZM28.5363 12.446C28.5363 11.618 28.4643 11.066 28.3203 10.79C28.1763 10.514 27.8403 10.376 27.3123 10.376C26.7843 10.376 26.1843 10.586 25.5123 11.006V12.32L25.7103 16.55L23.2803 17L23.4963 12.626L23.2803 3.518L25.7463 3.068L25.5123 7.73V9.836C25.6923 9.596 25.8963 9.362 26.1243 9.134C26.3523 8.906 26.7063 8.648 27.1863 8.36C27.6663 8.072 28.1763 7.928 28.7163 7.928C29.2683 7.928 29.7303 8.144 30.1023 8.576C30.4743 8.996 30.6603 9.572 30.6603 10.304L30.5523 12.32L30.7503 16.64L28.3203 17.09L28.5363 12.446ZM34.8974 17C34.2494 17 33.7214 16.79 33.3134 16.37C32.9174 15.938 32.7194 15.374 32.7194 14.678L32.8274 12.608L32.6294 8.288L35.0414 7.838L34.8074 13.31C34.8074 13.826 34.8974 14.204 35.0774 14.444C35.2694 14.684 35.5694 14.804 35.9774 14.804C36.3854 14.804 36.9494 14.6 37.6694 14.192V13.112L37.4714 8.378L39.9014 7.928L39.6854 12.428L39.7034 13.904C39.7034 14.672 39.9014 15.446 40.2974 16.226L38.4254 17.054C38.0294 16.274 37.7894 15.65 37.7054 15.182C36.6254 16.394 35.6894 17 34.8974 17ZM46.6831 7.91C47.4871 7.91 48.1411 8.258 48.6451 8.954C49.1491 9.65 49.4011 10.544 49.4011 11.636C49.4011 13.208 48.9871 14.498 48.1591 15.506C47.3431 16.502 46.2811 17 44.9731 17C44.3731 17 43.3651 16.904 41.9491 16.712L42.1291 12.626L41.9131 3.518L44.3791 3.068L44.1451 7.712V9.656C44.2771 9.464 44.4391 9.26 44.6311 9.044C44.8231 8.828 45.1231 8.588 45.5311 8.324C45.9391 8.048 46.3231 7.91 46.6831 7.91ZM45.9811 10.25C45.4291 10.25 44.8171 10.418 44.1451 10.754V12.32L44.2531 14.966C44.7571 15.026 45.2311 15.056 45.6751 15.056C46.8271 15.056 47.4031 14.258 47.4031 12.662C47.4031 11.054 46.9291 10.25 45.9811 10.25Z" fill="#FF5C00"/>
<path d="M60.3869 6.506H56.5529L56.4449 9.818H59.8829L59.6849 11.726H56.3909L56.3729 12.32L56.5889 17H54.0689L54.2849 12.626L54.0689 4.58H60.5849L60.3869 6.506ZM64.0478 7.838L63.8318 12.32L64.0298 16.55L61.6178 17L61.8338 12.626L61.6358 8.288L64.0478 7.838ZM61.5098 5.21C61.5098 4.802 61.6658 4.442 61.9778 4.13C62.2898 3.806 62.6498 3.644 63.0578 3.644C63.4658 3.644 63.7778 3.758 63.9938 3.986C64.2098 4.202 64.3178 4.532 64.3178 4.976C64.3178 5.42 64.1618 5.804 63.8498 6.128C63.5498 6.44 63.1958 6.596 62.7878 6.596C62.3918 6.596 62.0798 6.464 61.8518 6.2C61.6238 5.936 61.5098 5.606 61.5098 5.21ZM71.2503 12.446C71.2503 11.618 71.1783 11.066 71.0343 10.79C70.8903 10.514 70.5543 10.376 70.0263 10.376C69.4983 10.376 68.8983 10.586 68.2263 11.006V12.32L68.4243 16.55L66.0123 17L66.2283 12.626C66.1803 11.018 66.0483 9.578 65.8323 8.306L68.0103 7.838C68.0943 8.534 68.1543 9.212 68.1903 9.872C68.3703 9.632 68.5743 9.398 68.8023 9.17C69.0303 8.93 69.3903 8.666 69.8823 8.378C70.3743 8.078 70.8903 7.928 71.4303 7.928C71.9823 7.928 72.4443 8.144 72.8163 8.576C73.1883 8.996 73.3743 9.572 73.3743 10.304L73.2663 12.32L73.4643 16.64L71.0343 17.09L71.2503 12.446ZM80.2042 15.236C79.2682 16.412 78.4582 17 77.7742 17C76.9222 17 76.2202 16.652 75.6682 15.956C75.1282 15.26 74.8582 14.366 74.8582 13.274C74.8582 11.774 75.2722 10.508 76.1002 9.476C76.9402 8.444 77.9662 7.928 79.1782 7.928L80.1862 8.072V7.73L79.9702 3.518L82.4362 3.068L82.2022 12.32V13.904C82.2022 14.624 82.3822 15.452 82.7422 16.388L80.7982 17.198C80.4502 16.478 80.2522 15.824 80.2042 15.236ZM76.8742 12.338C76.8742 13.106 77.0122 13.706 77.2882 14.138C77.5762 14.57 77.9842 14.786 78.5122 14.786C79.0522 14.786 79.6102 14.57 80.1862 14.138V10.25C79.4662 10.106 78.9322 10.034 78.5842 10.034C78.0442 10.034 77.6242 10.226 77.3242 10.61C77.0242 10.994 76.8742 11.57 76.8742 12.338ZM87.7274 15.164C88.0754 15.164 88.4414 15.074 88.8254 14.894C89.2094 14.714 89.5094 14.534 89.7254 14.354L90.0494 14.084L90.8774 15.092C90.7574 15.296 90.5714 15.53 90.3194 15.794C90.0674 16.058 89.8094 16.286 89.5454 16.478C89.2934 16.658 88.9514 16.826 88.5194 16.982C88.0994 17.126 87.6614 17.198 87.2054 17.198C86.2334 17.198 85.4414 16.832 84.8294 16.1C84.2174 15.356 83.9114 14.402 83.9114 13.238C83.9114 11.774 84.3374 10.49 85.1894 9.386C86.0414 8.282 87.0374 7.73 88.1774 7.73C89.0534 7.73 89.7314 7.976 90.2114 8.468C90.7034 8.96 90.9494 9.65 90.9494 10.538C90.9494 11.066 90.8594 11.666 90.6794 12.338L90.3194 12.716L85.8194 13.13C86.0234 14.486 86.6594 15.164 87.7274 15.164ZM87.7274 9.584C87.1994 9.584 86.7554 9.8 86.3954 10.232C86.0354 10.652 85.8254 11.192 85.7654 11.852L88.8254 11.474C88.8614 11.198 88.8794 10.97 88.8794 10.79C88.8794 9.986 88.4954 9.584 87.7274 9.584ZM92.3226 8.306L94.5006 7.838C94.6086 8.762 94.6806 9.638 94.7166 10.466C95.8086 8.774 96.8346 7.928 97.7946 7.928L97.5966 10.736C96.9006 10.736 96.3486 10.802 95.9406 10.934C95.5446 11.054 95.1366 11.3 94.7166 11.672V12.32L94.9146 16.55L92.5026 17L92.7186 12.626C92.6706 11.018 92.5386 9.578 92.3226 8.306Z" fill="white"/>
</svg>
