<svg width="360" height="386" viewBox="0 0 360 386" fill="none" xmlns="http://www.w3.org/2000/svg">
<path d="M437 157.5C437 222.946 470 386 333.5 357C226 322 212 267 114 171C114 105.554 276.339 39 333.5 39C390.661 39 437 92.0543 437 157.5Z" fill="#FF5C00" fill-opacity="0.8"/>
<path d="M276.907 114C181.276 155.5 183.545 307 88 307C-14 307 -53.0933 208.795 -53.0933 155.5C-53.0933 102.205 181.361 -18.5 276.907 -18.5C419.907 -36 382.907 68 276.907 114Z" fill="#D1D1D1"/>
<path d="M230 0C217 25 178 40 150 49C110 61.8571 106 88 70.9995 117C53.9998 137 2.75275 160.19 -13.0003 145C-28.7534 129.81 -13.0005 21.4825 -13.0005 1.52588e-05L70.9995 0H230Z" fill="#31243F"/>
</svg>
