<svg width="18" height="22" viewBox="0 0 18 22" fill="none" xmlns="http://www.w3.org/2000/svg">
<path fill-rule="evenodd" clip-rule="evenodd" d="M8.66475 17.6316L2.7334 20.8811C2.25983 21.1272 1.6764 20.953 1.41532 20.4875V20.4875C1.33979 20.3433 1.29904 20.1834 1.29633 20.0206V5.62247C1.29633 2.87647 3.17276 1.77808 5.87298 1.77808H12.2162C14.8341 1.77808 16.7929 2.80325 16.7929 5.4394V20.0206C16.7929 20.2804 16.6897 20.5295 16.506 20.7132C16.3224 20.8969 16.0732 21 15.8135 21C15.6478 20.9974 15.4849 20.9567 15.3375 20.8811L9.36955 17.6316C9.14964 17.5128 8.88466 17.5128 8.66475 17.6316Z" stroke="#B9BCBE" stroke-width="2" stroke-linecap="round" stroke-linejoin="round"/>
</svg>
