<svg width="17" height="16" viewBox="0 0 17 16" fill="none" xmlns="http://www.w3.org/2000/svg">
<g clip-path="url(#clip0_214_119)">
<path d="M12.9116 11.96C11.7629 12.8286 10.3642 13.3099 8.91995 13.3333C4.21595 13.3333 1.52795 7.99998 1.52795 7.99998C2.36385 6.45457 3.52321 5.10438 4.92827 4.03998M7.50875 2.82664C7.97131 2.71923 8.44489 2.66554 8.91995 2.66664C13.624 2.66664 16.312 7.99998 16.312 7.99998C15.904 8.75705 15.4176 9.4698 14.8604 10.1266M10.3446 9.41331C10.16 9.60981 9.93746 9.76741 9.69017 9.87673C9.44287 9.98604 9.17592 10.0448 8.90523 10.0496C8.63454 10.0543 8.36566 10.0049 8.11464 9.9043C7.86361 9.80371 7.63557 9.654 7.44414 9.46408C7.2527 9.27416 7.10179 9.04794 7.00039 8.7989C6.899 8.54987 6.8492 8.28312 6.85398 8.01458C6.85876 7.74604 6.918 7.48121 7.02819 7.23587C7.13838 6.99054 7.29724 6.76974 7.49531 6.58664" stroke="#D9D9D9" stroke-opacity="0.9" stroke-width="2" stroke-linecap="round" stroke-linejoin="round"/>
<path d="M1.52795 0.666687L16.312 15.3334" stroke="#D9D9D9" stroke-opacity="0.9" stroke-width="2" stroke-linecap="round" stroke-linejoin="round"/>
</g>
<defs>
<clipPath id="clip0_214_119">
<rect width="16.128" height="16" fill="white" transform="translate(0.855957)"/>
</clipPath>
</defs>
</svg>
