<svg width="18" height="21" viewBox="0 0 18 21" fill="none" xmlns="http://www.w3.org/2000/svg">
<path d="M6.79464 17.2145C2.91383 18.5031 2.91383 15.0667 1.36151 14.6371M12.2278 19.7918V16.467C12.2569 16.0574 12.2069 15.6455 12.0811 15.2589C11.9553 14.8723 11.7566 14.5198 11.4982 14.2247C13.9353 13.924 16.4966 12.9017 16.4966 8.21089C16.4964 7.01141 16.0796 5.85793 15.3324 4.98919C15.6862 3.93978 15.6612 2.77984 15.2626 1.75031C15.2626 1.75031 14.3467 1.44962 12.2278 3.02181C10.4488 2.48814 8.57359 2.48814 6.79464 3.02181C4.67572 1.44962 3.75985 1.75031 3.75985 1.75031C3.36119 2.77984 3.33618 3.93978 3.68999 4.98919C2.93722 5.86438 2.51995 7.02828 2.52575 8.23666C2.52575 12.8931 5.08708 13.9154 7.52423 14.2505C7.26887 14.5426 7.07193 14.8909 6.94623 15.2728C6.82052 15.6547 6.76887 16.0616 6.79464 16.467V19.7918" stroke="black" stroke-width="2" stroke-linecap="round" stroke-linejoin="round"/>
</svg>
