<svg width="18" height="17" viewBox="0 0 18 17" fill="none" xmlns="http://www.w3.org/2000/svg">
<path d="M6.79464 13.1577C2.91383 14.1357 2.91383 11.5275 1.36151 11.2015M12.2278 15.1138V12.5904C12.2569 12.2795 12.2069 11.9669 12.0811 11.6735C11.9553 11.38 11.7566 11.1125 11.4982 10.8885C13.9353 10.6603 16.4966 9.88437 16.4966 6.32419C16.4964 5.41381 16.0796 4.53835 15.3324 3.879C15.6862 3.08253 15.6612 2.20216 15.2626 1.42078C15.2626 1.42078 14.3467 1.19256 12.2278 2.38581C10.4488 1.98077 8.57359 1.98077 6.79464 2.38581C4.67572 1.19256 3.75985 1.42078 3.75985 1.42078C3.36119 2.20216 3.33618 3.08253 3.68999 3.879C2.93722 4.54324 2.51995 5.42662 2.52575 6.34375C2.52575 9.87785 5.08708 10.6538 7.52423 10.9081C7.26887 11.1298 7.07193 11.3941 6.94623 11.684C6.82052 11.9738 6.76887 12.2827 6.79464 12.5904V15.1138" stroke="white" stroke-width="2" stroke-linecap="round" stroke-linejoin="round"/>
</svg>
