<svg width="24" height="24" viewBox="0 0 24 24" fill="none" xmlns="http://www.w3.org/2000/svg">
<path d="M22.4063 12C22.4067 14.0585 21.7966 16.0709 20.6532 17.7825C19.5098 19.4942 17.8844 20.8283 15.9826 21.6161C14.0809 22.4039 11.9882 22.61 9.96931 22.2083C7.95042 21.8066 6.09602 20.8152 4.64067 19.3594C3.6714 18.3951 2.90303 17.2482 2.38003 15.9849C1.85703 14.7217 1.58979 13.3673 1.59379 12H2.99629C2.99629 16.9646 7.03551 21.0038 12 21.0038C16.9646 21.0038 21.0038 16.9646 21.0038 12C21.0038 7.03551 16.9646 2.99629 12 2.99629C10.7764 2.99628 9.56563 3.24604 8.44189 3.73029C7.31814 4.21455 6.30508 4.92309 5.46473 5.81254H8.20317V7.21504H3.28129V2.29692H4.68426V4.60786C6.14323 3.16344 7.99696 2.18301 10.012 1.79003C12.0271 1.39704 14.1134 1.60908 16.0082 2.39943C17.903 3.18978 19.5215 4.52312 20.6601 6.23152C21.7986 7.93993 22.4062 9.94702 22.4063 12ZM11.7188 6.51567V13.125H17.4844V11.7188H13.125V6.51567H11.7188Z" fill="#FF5C00"/>
</svg>
