<svg width="21" height="24" viewBox="0 0 21 24" fill="none" xmlns="http://www.w3.org/2000/svg">
<path fill-rule="evenodd" clip-rule="evenodd" d="M18.8066 7.07615L18.1842 5.90462C17.6576 4.91333 16.4907 4.57136 15.5755 5.14015V5.14015C15.1399 5.4185 14.6201 5.49748 14.1307 5.35965C13.6413 5.22183 13.2226 4.87853 12.9668 4.40546C12.8023 4.10477 12.7139 3.76229 12.7105 3.41264V3.41264C12.7254 2.85207 12.5304 2.30885 12.17 1.90674C11.8096 1.50462 11.3145 1.27785 10.7975 1.27808H9.54347C9.03694 1.27807 8.55128 1.497 8.19397 1.88643C7.83666 2.27585 7.63714 2.80366 7.63958 3.35307V3.35307C7.62457 4.48741 6.77245 5.3984 5.72654 5.39828C5.40418 5.39465 5.08843 5.29876 4.8112 5.12029V5.12029C3.89603 4.5515 2.72908 4.89348 2.20251 5.88477L1.53432 7.07615C1.00838 8.06621 1.31937 9.33115 2.22997 9.90569V9.90569C2.82187 10.2764 3.1865 10.9614 3.1865 11.7027C3.1865 12.444 2.82187 13.129 2.22997 13.4997V13.4997C1.32053 14.0704 1.0092 15.3323 1.53432 16.3193V16.3193L2.16589 17.5008C2.41262 17.9836 2.82657 18.34 3.31616 18.4909C3.80575 18.6418 4.33061 18.5749 4.77459 18.305V18.305C5.21105 18.0287 5.73116 17.953 6.21931 18.0947C6.70746 18.2364 7.12321 18.5837 7.37413 19.0595C7.53867 19.3602 7.62708 19.7027 7.63043 20.0523V20.0523C7.63043 21.1983 8.48692 22.1273 9.54347 22.1273H10.7975C11.8505 22.1273 12.7055 21.2044 12.7105 20.0623V20.0623C12.7081 19.5111 12.9088 18.9818 13.2681 18.5921C13.6274 18.2024 14.1154 17.9846 14.6236 17.9873C14.9451 17.9966 15.2596 18.0921 15.5389 18.2652V18.2652C16.4517 18.8357 17.6179 18.4984 18.1476 17.5107V17.5107L18.8066 16.3193C19.0617 15.8444 19.1317 15.2788 19.0012 14.7477C18.8706 14.2166 18.5502 13.7639 18.111 13.4898V13.4898C17.6717 13.2157 17.3514 12.763 17.2208 12.2319C17.0902 11.7008 17.1602 11.1352 17.4153 10.6602C17.5812 10.3461 17.8213 10.0856 18.111 9.90569V9.90569C19.0161 9.33146 19.3264 8.07391 18.8066 7.08608V7.08608V7.07615Z" stroke="#B9BCBE" stroke-width="2" stroke-linecap="round" stroke-linejoin="round"/>
<ellipse cx="10.175" cy="11.7027" rx="2.63616" ry="2.85933" stroke="#B9BCBE" stroke-width="2" stroke-linecap="round" stroke-linejoin="round"/>
</svg>
