<svg width="20" height="23" viewBox="0 0 20 23" fill="none" xmlns="http://www.w3.org/2000/svg">
<path fill-rule="evenodd" clip-rule="evenodd" d="M18.5281 6.79808L17.9057 5.62655C17.3791 4.63526 16.2121 4.29328 15.297 4.86208C14.8613 5.14043 14.3415 5.2194 13.8521 5.08158C13.3628 4.94375 12.944 4.60046 12.6883 4.12739C12.5237 3.8267 12.4353 3.48421 12.432 3.13457C12.4468 2.574 12.2518 2.03078 11.8915 1.62866C11.5311 1.22654 11.036 0.999769 10.5189 1H9.26494C8.7584 0.999994 8.27275 1.21893 7.91544 1.60835C7.55812 1.99778 7.35861 2.52559 7.36105 3.075C7.34603 4.20934 6.49392 5.12033 5.448 5.12021C5.12565 5.11658 4.80989 5.02068 4.53267 4.84222C3.6175 4.27343 2.45055 4.6154 1.92397 5.60669L1.25578 6.79808C0.729846 7.78813 1.04084 9.05307 1.95143 9.62762C2.54334 9.99828 2.90797 10.6833 2.90797 11.4246C2.90797 12.166 2.54334 12.851 1.95143 13.2216C1.04199 13.7923 0.730663 15.0542 1.25578 16.0412L1.88736 17.2227C2.13408 17.7056 2.54804 18.0619 3.03763 18.2128C3.52722 18.3637 4.05208 18.2968 4.49606 18.0269C4.93252 17.7507 5.45262 17.675 5.94078 17.8167C6.42893 17.9583 6.84467 18.3057 7.0956 18.7814C7.26013 19.0821 7.34854 19.4246 7.35189 19.7743C7.35189 20.9202 8.20839 21.8492 9.26494 21.8492H10.5189C11.5719 21.8493 12.4269 20.9263 12.432 19.7842C12.4295 19.233 12.6303 18.7037 12.9896 18.314C13.3489 17.9243 13.8369 17.7065 14.345 17.7092C14.6666 17.7185 14.9811 17.814 15.2604 17.9872C16.1731 18.5576 17.3394 18.2203 17.8691 17.2326L18.5281 16.0412C18.7832 15.5663 18.8532 15.0007 18.7226 14.4696C18.5921 13.9385 18.2717 13.4858 17.8324 13.2117C17.3932 12.9376 17.0728 12.4849 16.9422 11.9538C16.8117 11.4227 16.8817 10.8571 17.1368 10.3822C17.3027 10.068 17.5428 9.80755 17.8324 9.62762C18.7376 9.05338 19.0478 7.79583 18.5281 6.808V6.79808Z" fill="#FF5C00" stroke="#FF5C00" stroke-width="2" stroke-linecap="round" stroke-linejoin="round"/>
</svg>
